<svg xmlns="http://www.w3.org/2000/svg" viewBox="0 0 112.71 98.68"><defs><style>.cls-1{fill:#1d1d1b;}</style></defs><title>Recurso 1AA</title><g id="Capa_2" data-name="Capa 2"><g id="Capa_1-2" data-name="Capa 1"><path class="cls-1" d="M51.07,46.27c2.93-3,4.06-8,4.11-12.94A20.21,20.21,0,0,1,59,32.79a39.86,39.86,0,0,0-1,8.75,29.84,29.84,0,0,0,.28,4.18c.92,6.22,4.68,8.94,8.3,8.94a7.42,7.42,0,0,0,4.82-1.8c1.63-1.46,2.84-4,2.84-7.52a6.78,6.78,0,0,0,0-.78c-.4-8.15-4.84-12.67-9.85-13.64C69.13,15.23,79,1.91,91,.66A20.55,20.55,0,0,1,93.08.57V0C79.27,0,65,12.41,53.31,23.24,49,12.51,37.66,4.94,25.84,4.94h-.28a25.63,25.63,0,0,0-6,.78A29.37,29.37,0,0,0,13,8.16a1.28,1.28,0,0,0-.66,1,.78.78,0,0,0,.82.78,1.59,1.59,0,0,0,.86-.3c1.15-.76,2-2.44,5.76-3.41a23.8,23.8,0,0,1,5.82-.73c12.7,0,22.08,8.23,25.46,19.81-2.29,2.15-4.49,4.18-6.55,6C40.19,22,35.34,14.14,26.74,12.84a20.66,20.66,0,0,0-2.81-.22c-6,0-14,2.68-20.45,12.23A20.13,20.13,0,0,0,.21,33.12,23.56,23.56,0,0,0,0,36.2c0,8.15,5,13.28,14.94,13.28S36.57,39.17,44,32.55c.81,1.49,1.59,3,2.32,4.52-.71.64-1.39,1.32-2.06,2a8.65,8.65,0,0,0-2.5,5.63,3.7,3.7,0,0,0,3.83,4,7.05,7.05,0,0,0,2.76-.62,8.31,8.31,0,0,0,2.34-1.48M14.94,46.2C8.3,46.2.59,43.74.59,35.56a16.25,16.25,0,0,1,.19-2.34A20.54,20.54,0,0,1,4,25.15c5.08-7.7,12.39-9.38,17.9-9.38a28.93,28.93,0,0,1,4.39.33c7.21,1.06,12.82,7.68,17.45,16C36.62,38.63,24,46.2,14.94,46.2ZM44.75,31.87c2-1.8,4.19-3.81,6.48-5.93a35.48,35.48,0,0,1,1.14,7,27.67,27.67,0,0,0-5.54,3.69Q45.81,34.19,44.75,31.87Zm5.47,13.78a6.1,6.1,0,0,1-2.2,2,5.18,5.18,0,0,1-2.37.64,3.35,3.35,0,0,1-3.35-3.61,7.79,7.79,0,0,1,2.34-5.13,19.77,19.77,0,0,1,1.93-1.85h0a2.93,2.93,0,0,1,.55-.45h0a20.9,20.9,0,0,1,5.32-3c0,.47,0,.95,0,1.44,0,3.55-.42,7.07-1.89,9.51m23-.57,0,.57c0,3.49-1,6-2.65,7.28a5,5,0,0,1-3,1.27c-3.24,0-5.36-4.84-5.36-11.53a37.6,37.6,0,0,1,1.15-9.06C69.18,34.26,73.41,38,73.6,44.59ZM59.51,30.71a19.68,19.68,0,0,0-4.33,1,25.93,25.93,0,0,0-1.65-7.92A171.53,171.53,0,0,1,70.43,9.6,56.86,56.86,0,0,0,59.51,30.71Z"/><path class="cls-1" d="M110.64,29.87a20.83,20.83,0,0,1,2.07-.24l0-.57c-13.77,1-27.15,14.34-38,26A29.8,29.8,0,0,0,58.07,40.47v0c0,.12,0,.24,0,.35a2.63,2.63,0,0,1-.05.49A27.25,27.25,0,0,1,72.5,57.25c-2.13,2.31-4.19,4.49-6.11,6.45-4.94-9-10.33-16.51-19-17.21a22,22,0,0,0-2.82,0c-6,.42-13.83,3.64-19.55,13.62a20.25,20.25,0,0,0-2.68,8.48,22.6,22.6,0,0,0,0,3.08c.57,8.14,5.91,12.91,15.84,12.21S59,72.08,66,65c.9,1.43,1.78,2.86,2.62,4.34-.66.69-1.3,1.42-1.91,2.18a8.59,8.59,0,0,0-2.1,5.78A3.7,3.7,0,0,0,68.67,81a7.13,7.13,0,0,0,2.71-.81,8.56,8.56,0,0,0,2.23-1.65,88.41,88.41,0,0,0,7,11.24c4.27,5.58,9.13,9.29,15.36,8.86a17.41,17.41,0,0,0,4.85-1.12,48,48,0,0,0,7.46-3.46A1.27,1.27,0,0,0,109,93a.76.76,0,0,0-.9-.67,1.8,1.8,0,0,0-.78.29c-1.59,1-3.91,3.4-6.69,4.4A16.3,16.3,0,0,1,96,98c-6.06.42-10.79-3.16-14.93-8.58A86.19,86.19,0,0,1,74,78.15c2.72-3.16,3.5-8.28,3.2-13.19A19.45,19.45,0,0,1,81,64.15a40.48,40.48,0,0,0-.43,8.8,28.81,28.81,0,0,0,.58,4.15c1.35,6.14,5.29,8.59,8.9,8.34a7.41,7.41,0,0,0,4.68-2.13c1.53-1.57,2.56-4.16,2.31-7.7,0-.26,0-.51-.08-.77-1-8.11-5.72-12.31-10.78-12.92C89.84,45.92,98.77,32,110.64,29.87ZM38,80.59c-6.63.47-14.49-1.45-15.06-9.61a16.88,16.88,0,0,1,0-2.35,20.51,20.51,0,0,1,2.6-8.26c4.53-8,11.71-10.23,17.2-10.61a29.08,29.08,0,0,1,4.41,0c7.27.56,13.32,6.78,18.52,14.71C59.05,71.54,47,80,38,80.59ZM66.69,64.22c1.88-1.93,3.91-4.09,6-6.37a35.24,35.24,0,0,1,1.61,6.88,27.66,27.66,0,0,0-5.26,4.07Q67.91,66.46,66.69,64.22ZM71,79.7a5.12,5.12,0,0,1-2.31.8,3.35,3.35,0,0,1-3.61-3.37,7.88,7.88,0,0,1,2-5.28,21.25,21.25,0,0,1,1.81-2c1.43,2.53,2.8,5.14,4.19,7.72A6,6,0,0,1,71,79.7Zm2.38-2.63c-1.39-2.55-2.71-5.14-4-7.68A20.9,20.9,0,0,1,74.52,66c0,.47.08.94.12,1.44C74.89,71,74.71,74.54,73.42,77.07ZM96.35,74.9l.06.56c.24,3.5-.62,6-2.13,7.45a5,5,0,0,1-3,1.49c-3.23.23-5.69-4.46-6.16-11.14a37.57,37.57,0,0,1,.53-9.11C91.22,64.9,95.7,68.38,96.35,74.9ZM81.32,62a19.69,19.69,0,0,0-4.24,1.31,25.85,25.85,0,0,0-2.21-7.78A173.64,173.64,0,0,1,90.75,40.22,57,57,0,0,0,81.32,62Z"/></g></g></svg>