<svg xmlns="http://www.w3.org/2000/svg" viewBox="0 0 305.39 45.11"><defs><style>.cls-1{fill:#1d1d1b;}</style></defs><title>Recurso 1Alejandra y Alexanyer</title><g id="Capa_2" data-name="Capa 2"><g id="Capa_1-2" data-name="Capa 1"><path class="cls-1" d="M61.52,0V.38a12.63,12.63,0,0,0-1.38.06c-7.92.83-14.45,9.62-17.64,20,3.31.64,6.25,3.62,6.52,9,0,.17,0,.35,0,.52a6.52,6.52,0,0,1-1.87,5A5,5,0,0,1,44,36.12c-2.39,0-4.88-1.79-5.49-5.9a20.68,20.68,0,0,1-.18-2.77A27.1,27.1,0,0,1,39,21.67a13,13,0,0,0-2.51.36c0,3.25-.78,6.59-2.72,8.55a57.6,57.6,0,0,0,4.17,7.78c2.49,3.76,5.44,6.34,9.46,6.34a11,11,0,0,0,3-.45c1.88-.53,3.52-2,4.61-2.59a1.13,1.13,0,0,1,.53-.16.5.5,0,0,1,.56.48.86.86,0,0,1-.46.68,31.15,31.15,0,0,1-5.08,1.93,11.25,11.25,0,0,1-3.25.52c-4.13,0-7.16-2.67-9.72-6.55a59,59,0,0,1-4.13-7.73,5.69,5.69,0,0,1-1.54,1,4.77,4.77,0,0,1-1.83.41,2.45,2.45,0,0,1-2.53-2.66,5.71,5.71,0,0,1,1.65-3.72c.44-.46.89-.92,1.36-1.34-.48-1-1-2-1.53-3C24.17,25.89,16.52,32.7,9.88,32.7S0,29.31,0,23.92a16,16,0,0,1,.14-2A13.38,13.38,0,0,1,2.3,16.42c4.23-6.31,9.54-8.08,13.51-8.08a15.3,15.3,0,0,1,1.86.14c5.69.86,8.89,6.07,11.74,12.22,1.36-1.2,2.81-2.54,4.32-4C31.5,9.08,25.3,3.64,16.91,3.64a16.57,16.57,0,0,0-3.85.48c-2.51.65-3,1.76-3.81,2.26a1,1,0,0,1-.56.2.52.52,0,0,1-.55-.52.86.86,0,0,1,.44-.67,19.73,19.73,0,0,1,4.33-1.61,16.7,16.7,0,0,1,4-.51h.19A20,20,0,0,1,35.23,15.36C43,8.2,52.39,0,61.52,0ZM28.88,21.19c-3.07-5.47-6.77-9.85-11.54-10.55a19.72,19.72,0,0,0-2.9-.22A13.79,13.79,0,0,0,.52,22,10.92,10.92,0,0,0,.39,23.5c0,5.41,5.09,7,9.49,7C15.89,30.53,24.2,25.53,28.88,21.19Zm4.31,9c-.8-1.76-1.58-3.55-2.41-5.28a14.69,14.69,0,0,0-1.28,1.22A5.19,5.19,0,0,0,28,29.5a2.22,2.22,0,0,0,2.22,2.39,3.42,3.42,0,0,0,1.56-.42A4,4,0,0,0,33.19,30.17Zm-2.24-6a18.37,18.37,0,0,1,3.66-2.44,22.88,22.88,0,0,0-.75-4.61c-1.52,1.41-2.95,2.74-4.28,3.92C30.05,22.08,30.5,23.12,31,24.19Zm3.72-.63c0-.33,0-.64,0-.95a13.77,13.77,0,0,0-3.52,2c.74,1.74,1.48,3.5,2.28,5.25A12.63,12.63,0,0,0,34.67,23.56ZM46.55,6.34a114.77,114.77,0,0,0-11.17,9.39A17.16,17.16,0,0,1,36.47,21a12.47,12.47,0,0,1,2.86-.67A37.62,37.62,0,0,1,46.55,6.34Zm2.09,23.13c-.12-4.33-2.92-6.83-6.53-7.58a24.86,24.86,0,0,0-.77,6c0,4.42,1.41,7.62,3.55,7.62a3.35,3.35,0,0,0,2-.84c1.06-.86,1.75-2.5,1.75-4.82Z"/><path class="cls-1" d="M52.08,28.34c0,.33.14.49.4.49a3.53,3.53,0,0,0,1.74-.91,31,31,0,0,0,3.48-3.31.24.24,0,0,1,.13-.05.18.18,0,0,1,.17.17.16.16,0,0,1,0,.11,30.89,30.89,0,0,1-3.53,3.35,4.68,4.68,0,0,1-2.59,1.2,1.4,1.4,0,0,1-.47-.08,1.66,1.66,0,0,1-1-1.67c0-1.87,1.78-4.61,2.5-5.81.12-.19.23-.38.34-.58l-1,1.13c-.91,1-1.73,1.92-2.5,2.73a.14.14,0,0,1-.11.05.18.18,0,0,1-.17-.18.12.12,0,0,1,.05-.1c.76-.82,1.57-1.72,2.46-2.72s1.61-1.83,2.49-2.85c2.78-4.26,6.12-8.48,8.58-9.53a2.11,2.11,0,0,1,.79-.19.93.93,0,0,1,1,1.05,1.69,1.69,0,0,1,0,.3c-.16,1.14-1.2,3-3.5,5.25a58,58,0,0,1-5.72,4.86l-.67,1.2c-.23.42-1.5,2.61-2.27,4.36A4.74,4.74,0,0,0,52.08,28.34Zm12-17.73c0-.39-.14-.61-.45-.61a1.08,1.08,0,0,0-.44.11c-1.79.67-4.56,5.42-7.2,10.19a60.19,60.19,0,0,0,5.08-4.36C62.89,14.11,64.06,11.72,64.06,10.61Z"/><path class="cls-1" d="M66.55,24.53a.18.18,0,0,1,.17.17.18.18,0,0,1,0,.11,30.24,30.24,0,0,1-3.53,3.36A5.1,5.1,0,0,1,60,29.36a2.6,2.6,0,0,1-2.8-2,3.6,3.6,0,0,1-.06-.73c0-3.3,3.89-6.36,7-6.36a1.52,1.52,0,0,1,1.65,1.56v.13c-.16,2.39-4.69,3.94-6.77,4.23a5.69,5.69,0,0,0-.08.95c0,1.3.58,1.9,1.46,1.9a4.75,4.75,0,0,0,2.56-1.11,31.53,31.53,0,0,0,3.48-3.33A.19.19,0,0,1,66.55,24.53Zm-7.43,1.25a8.53,8.53,0,0,0,4.5-2.17,3.44,3.44,0,0,0,1.24-2.22.74.74,0,0,0-.77-.78c-.82,0-2,.95-3,1.94A9.68,9.68,0,0,0,59.12,25.78Z"/><path class="cls-1" d="M68.36,30.77A16.8,16.8,0,0,0,72,28.45a33.87,33.87,0,0,0,3.91-3.86.21.21,0,0,1,.12,0,.17.17,0,0,1,.18.15.19.19,0,0,1,0,.13,35.27,35.27,0,0,1-3.94,3.89,16.41,16.41,0,0,1-4.12,2.55c-1.69,2.79-5.07,8.65-8.53,8.65h-.13c-1,0-1.47-.87-1.47-1.78a2.78,2.78,0,0,1,.1-.76c.89-3.41,5.15-4.94,8.12-6,.14-.09,3.08-5.26,5-8.76A3.21,3.21,0,0,1,69.22,22c-.94,1.05-1.88,2.11-2.84,3.12a.21.21,0,0,1-.11.05.19.19,0,0,1-.19-.17.17.17,0,0,1,0-.11c1-1.05,2-2.11,2.91-3.19a1.54,1.54,0,0,1-.12-.58c0-.48.31-.82,1-.82a.69.69,0,0,1,.78.65c0,.39-.41.7-.41,1s.08.21.34.31a2.4,2.4,0,0,0,.66.11,4.39,4.39,0,0,0,3.39-2.11C73.84,21.7,69.2,29.2,68.36,30.77Zm-9.13,8.75c1.29,0,3.46-2.41,5.36-5.54l1.27-2.1c-3.27.9-7.53,4.73-7.53,6.67a1,1,0,0,0,.2.61A.83.83,0,0,0,59.23,39.52ZM76.16,17.3a1.38,1.38,0,0,1-.3.82,1.31,1.31,0,0,1-1,.6.61.61,0,0,1-.38-.11.78.78,0,0,1-.27-.63,1.44,1.44,0,0,1,.29-.82,1.31,1.31,0,0,1,1-.58.63.63,0,0,1,.38.11A.73.73,0,0,1,76.16,17.3Z"/><path class="cls-1" d="M89,24.53a.18.18,0,0,1,.17.17.15.15,0,0,1,0,.11,32.83,32.83,0,0,1-3.53,3.36,4.63,4.63,0,0,1-2.55,1.19c-1.29,0-1.44-1.05-1.44-2.06,0-.27,0-.53,0-.77-1.2,1.22-2.53,2.83-4.08,2.83s-2.23-1.14-2.23-2.63a6.94,6.94,0,0,1,7.23-6.48,1.48,1.48,0,0,1,1.52,1.67,3.2,3.2,0,0,1-.13.86c.6-1.11,1.24-2.53,2.28-2.53h2.21a8.81,8.81,0,0,0-3.17,3.19c-1.32,2-2.68,4.29-2.68,5.11v0c0,.28.19.42.5.42a4.35,4.35,0,0,0,2.3-1.11,30,30,0,0,0,3.5-3.31A.18.18,0,0,1,89,24.53Zm-5.7-1.34a4,4,0,0,0,.28-1.35c0-.7-.31-1.2-1-1.2a2.74,2.74,0,0,0-1,.2,9.18,9.18,0,0,0-3.81,4.08,7.32,7.32,0,0,0-1,3,1.41,1.41,0,0,0,.18.78.64.64,0,0,0,.6.33c1.17,0,3.25-2.15,3.8-2.81A11.44,11.44,0,0,0,83.3,23.19Z"/><path class="cls-1" d="M93.27,23.44c.48-.52.92-1,1.35-1.35a5.77,5.77,0,0,1,3.32-1.81c1,0,1.53.88,1.53,1.88a3.41,3.41,0,0,1-.63,2l-2.39,3.29A2.1,2.1,0,0,0,96,28.47c0,.28.18.44.49.44a3.8,3.8,0,0,0,2-1,31,31,0,0,0,3.48-3.31.19.19,0,0,1,.13-.05.17.17,0,0,1,.17.16.17.17,0,0,1,0,.12,30.89,30.89,0,0,1-3.53,3.35,4.66,4.66,0,0,1-2.55,1.2c-.87,0-1.42-.8-1.42-1.83a3.7,3.7,0,0,1,.75-2.17l2.25-3.11a2.22,2.22,0,0,0,.52-1.12c0-.27-.17-.39-.46-.39a5.66,5.66,0,0,0-2.89,1.57,25.22,25.22,0,0,0-2.61,2.83l-2,3.25a1.69,1.69,0,0,1-1.72,1H86.48c1.25-.77,3.79-4.77,5.83-8.11-1.12,1.3-2.26,2.58-3.45,3.83a.19.19,0,0,1-.13.05.18.18,0,0,1-.17-.18.16.16,0,0,1,0-.1c1.09-1.16,2.16-2.35,3.2-3.54a2.65,2.65,0,0,1,1.81-1.06.73.73,0,0,1,.8.78,1.93,1.93,0,0,1-.28.92Z"/><path class="cls-1" d="M111.3,23.44c-1.32,2-2.68,4.29-2.68,5.11h0c0,.28.21.44.54.44a4.3,4.3,0,0,0,2.26-1.11,30.93,30.93,0,0,0,3.5-3.31.24.24,0,0,1,.13,0,.18.18,0,0,1,.17.17.18.18,0,0,1,0,.11,32.83,32.83,0,0,1-3.53,3.36,4.63,4.63,0,0,1-2.55,1.19c-1.29,0-1.42-1.05-1.42-2.06v-.77c-1.2,1.22-2.53,2.83-4.08,2.83s-2.21-1.14-2.21-2.63a6.93,6.93,0,0,1,7.21-6.48,1.46,1.46,0,0,1,1.52,1.64,2.92,2.92,0,0,1,0,.5l4.66-7.69c1.22-2,3.09-4.39,5.12-5.06a1.53,1.53,0,0,1,.46-.06,1,1,0,0,1,1,.92,2.26,2.26,0,0,1,0,.27A5.6,5.6,0,0,1,120,13.89a71.42,71.42,0,0,1-8.24,8.81Zm-1.68-1.6c0-.7-.32-1.2-1.06-1.2a2.74,2.74,0,0,0-1,.2,9.18,9.18,0,0,0-3.81,4.08,7.22,7.22,0,0,0-1,3,1.62,1.62,0,0,0,.19.79.64.64,0,0,0,.59.33c1.16,0,3.26-2.15,3.8-2.81a11.2,11.2,0,0,0,1.91-3A3.68,3.68,0,0,0,109.62,21.84Zm2.77-.23a69.23,69.23,0,0,0,7.31-7.92A5.25,5.25,0,0,0,121,10.8a.94.94,0,0,0,0-.25c0-.36-.25-.58-.54-.58-.55,0-1.43.69-2.47,2.41Z"/><path class="cls-1" d="M126,24.67a1.19,1.19,0,0,1-.28.49,3.74,3.74,0,0,1-2.61,1.62,1.4,1.4,0,0,1-1.4-1.51,3,3,0,0,1,.61-1.71A62.13,62.13,0,0,0,118,28.42c-.58.74-.76,1-1.72,1H114c1.23-.77,2.46-2.12,4.64-5,.4-.57,1.56-2.13,1.56-3a.57.57,0,0,0-.17-.45.65.65,0,0,0-.47-.17c-.8,0-1.81,1.11-2.24,1.58-.89,1-1.72,1.92-2.48,2.73a.19.19,0,0,1-.13.05.18.18,0,0,1-.17-.18.16.16,0,0,1,0-.1c.77-.82,1.59-1.72,2.48-2.72s1.72-1.88,3.14-1.88h.08a1.21,1.21,0,0,1,1.31,1.3,4,4,0,0,1-.46,1.64,18.79,18.79,0,0,1-2,3.08,24,24,0,0,1,2.38-2.42,4.24,4.24,0,0,0,1.28-1.57c.44-1.15,1.12-2,2.12-2,.61,0,.88.2.88.5a1.28,1.28,0,0,1-.35.72,10.63,10.63,0,0,1-1.5,1.22,7.83,7.83,0,0,0-1.31,1.12,2.22,2.22,0,0,0-.59,1.44,1.1,1.1,0,0,0,1.06,1.22c.58,0,1.38-.42,2.28-1.53.1-.11.28-.38.46-.38a.1.1,0,0,1,.07,0S126,24.64,126,24.67Z"/><path class="cls-1" d="M138.91,24.53a.18.18,0,0,1,.17.17.15.15,0,0,1,0,.11,33.8,33.8,0,0,1-3.53,3.36A4.63,4.63,0,0,1,133,29.36c-1.3,0-1.44-1.05-1.44-2.06,0-.27,0-.53,0-.77-1.21,1.22-2.53,2.83-4.08,2.83s-2.24-1.14-2.24-2.63a7,7,0,0,1,7.24-6.48A1.47,1.47,0,0,1,134,21.92a3.19,3.19,0,0,1-.12.86c.59-1.11,1.23-2.53,2.28-2.53h2.2a8.89,8.89,0,0,0-3.17,3.19c-1.31,2-2.67,4.29-2.67,5.11v0c0,.28.19.42.5.42a4.39,4.39,0,0,0,2.3-1.11,30.87,30.87,0,0,0,3.5-3.31A.18.18,0,0,1,138.91,24.53Zm-5.71-1.34a3.75,3.75,0,0,0,.28-1.35c0-.7-.31-1.2-1-1.2a2.79,2.79,0,0,0-1,.2,9.29,9.29,0,0,0-3.81,4.08,7.32,7.32,0,0,0-1,3,1.41,1.41,0,0,0,.19.78.63.63,0,0,0,.59.33c1.18,0,3.25-2.15,3.8-2.81A11.19,11.19,0,0,0,133.2,23.19Z"/><path class="cls-1" d="M160.2,24.64a.19.19,0,0,1,.19.17.14.14,0,0,1,0,.11,35.15,35.15,0,0,1-3.93,3.89,16.47,16.47,0,0,1-4.13,2.55c-1.7,2.8-5.06,8.67-8.55,8.67h-.11a1.57,1.57,0,0,1-1.48-1.78,2.54,2.54,0,0,1,.11-.78c.89-3.39,5.14-4.94,8.11-5.94L152.5,28a4,4,0,0,1-2.66,1.48,1.52,1.52,0,0,1-1.7-1.59,3.93,3.93,0,0,1,.67-2L150.55,23c.67-1.11,1.45-2.62,2.5-2.62h2.2a8.53,8.53,0,0,0-3.19,3.18c-1.29,2-2.65,4.3-2.65,5.1v0c0,.28.2.43.53.43a3.62,3.62,0,0,0,2.18-1.23,17.79,17.79,0,0,0,1.46-1.67L155.52,23c.67-1.11,1.45-2.62,2.5-2.62h2.2a8.55,8.55,0,0,0-3.17,3.18l-4.47,7.3a16.74,16.74,0,0,0,3.61-2.31,35.37,35.37,0,0,0,3.9-3.85A.15.15,0,0,1,160.2,24.64ZM150.09,32c-3.28.9-7.53,4.72-7.53,6.66a.87.87,0,0,0,.21.61.81.81,0,0,0,.7.36c1.28,0,3.44-2.41,5.34-5.52Z"/><path class="cls-1" d="M232.33,0V.38A12.85,12.85,0,0,0,231,.44c-7.92.83-14.45,9.62-17.64,20,3.31.64,6.25,3.62,6.52,9,0,.17,0,.35,0,.52a6.48,6.48,0,0,1-1.87,5,4.93,4.93,0,0,1-3.19,1.18c-2.39,0-4.87-1.79-5.48-5.9a19.13,19.13,0,0,1-.19-2.77,26.5,26.5,0,0,1,.69-5.78,13,13,0,0,0-2.52.36c0,3.25-.78,6.59-2.72,8.55a58.75,58.75,0,0,0,4.17,7.78c2.49,3.76,5.44,6.34,9.46,6.34a10.93,10.93,0,0,0,3-.45c1.88-.53,3.52-2,4.61-2.59a1.16,1.16,0,0,1,.54-.16.51.51,0,0,1,.56.48.85.85,0,0,1-.47.68,31.15,31.15,0,0,1-5.08,1.93,11.2,11.2,0,0,1-3.25.52c-4.12,0-7.16-2.67-9.72-6.55a57.75,57.75,0,0,1-4.12-7.73,5.91,5.91,0,0,1-1.55,1,4.77,4.77,0,0,1-1.83.41,2.45,2.45,0,0,1-2.53-2.66,5.72,5.72,0,0,1,1.66-3.72c.43-.46.89-.92,1.36-1.34-.49-1-1-2-1.53-3C195,25.89,187.33,32.7,180.69,32.7s-9.88-3.39-9.88-8.78a16,16,0,0,1,.14-2,13.38,13.38,0,0,1,2.16-5.47c4.23-6.31,9.55-8.08,13.51-8.08a15.15,15.15,0,0,1,1.86.14c5.69.86,8.9,6.07,11.74,12.22,1.36-1.2,2.81-2.54,4.33-4-2.24-7.65-8.44-13.09-16.83-13.09a16.42,16.42,0,0,0-3.84.48c-2.52.65-3,1.76-3.82,2.26a1,1,0,0,1-.56.2.52.52,0,0,1-.55-.52.86.86,0,0,1,.44-.67,19.73,19.73,0,0,1,4.33-1.61,16.83,16.83,0,0,1,4-.51h.19a20,20,0,0,1,18.16,12.09C213.77,8.2,223.2,0,232.33,0ZM199.69,21.19c-3.07-5.47-6.77-9.85-11.53-10.55a20,20,0,0,0-2.91-.22A13.79,13.79,0,0,0,171.33,22a10.92,10.92,0,0,0-.13,1.55c0,5.41,5.1,7,9.49,7C186.7,30.53,195,25.53,199.69,21.19Zm4.31,9c-.8-1.76-1.58-3.55-2.41-5.28a14.69,14.69,0,0,0-1.28,1.22,5.17,5.17,0,0,0-1.54,3.39A2.21,2.21,0,0,0,201,31.89a3.49,3.49,0,0,0,1.57-.42A4,4,0,0,0,204,30.17Zm-2.23-6a18.31,18.31,0,0,1,3.65-2.44,22.88,22.88,0,0,0-.75-4.61c-1.51,1.41-2.95,2.74-4.28,3.92C200.86,22.08,201.31,23.12,201.77,24.19Zm3.71-.63c0-.33,0-.64,0-.95a13.77,13.77,0,0,0-3.52,2c.74,1.74,1.49,3.5,2.28,5.25A12.63,12.63,0,0,0,205.48,23.56ZM217.36,6.34a114.77,114.77,0,0,0-11.17,9.39A17.16,17.16,0,0,1,207.28,21a12.47,12.47,0,0,1,2.86-.67A37.62,37.62,0,0,1,217.36,6.34Zm2.09,23.13c-.12-4.33-2.92-6.83-6.53-7.58a24.82,24.82,0,0,0-.76,6c0,4.42,1.4,7.62,3.54,7.62a3.35,3.35,0,0,0,2-.84c1.06-.86,1.75-2.5,1.75-4.82Z"/><path class="cls-1" d="M222.89,28.34c0,.33.14.49.41.49a3.51,3.51,0,0,0,1.73-.91,31.85,31.85,0,0,0,3.49-3.31.18.18,0,0,1,.12-.05.18.18,0,0,1,.17.17.15.15,0,0,1,0,.11,30.86,30.86,0,0,1-3.54,3.35,4.65,4.65,0,0,1-2.59,1.2,1.4,1.4,0,0,1-.47-.08,1.66,1.66,0,0,1-1-1.67c0-1.87,1.78-4.61,2.5-5.81.12-.19.23-.38.34-.58-.33.39-.65.77-1,1.13-.9,1-1.73,1.92-2.5,2.73a.14.14,0,0,1-.11.05.18.18,0,0,1-.17-.18.16.16,0,0,1,.05-.1c.76-.82,1.58-1.72,2.47-2.72s1.61-1.83,2.48-2.85c2.78-4.26,6.13-8.48,8.58-9.53a2.11,2.11,0,0,1,.8-.19.93.93,0,0,1,1,1.05,1.69,1.69,0,0,1,0,.3c-.15,1.14-1.2,3-3.5,5.25a59,59,0,0,1-5.71,4.86l-.68,1.2c-.23.42-1.5,2.61-2.26,4.36A4.61,4.61,0,0,0,222.89,28.34Zm12-17.73c0-.39-.15-.61-.46-.61a1.12,1.12,0,0,0-.44.11c-1.79.67-4.56,5.42-7.2,10.19a57.2,57.2,0,0,0,5.08-4.36C233.7,14.11,234.88,11.72,234.88,10.61Z"/><path class="cls-1" d="M237.36,24.53a.18.18,0,0,1,.17.17.14.14,0,0,1-.05.11A30.24,30.24,0,0,1,234,28.17a5.1,5.1,0,0,1-3.17,1.19,2.6,2.6,0,0,1-2.8-2,4.49,4.49,0,0,1-.06-.73c0-3.3,3.89-6.36,7-6.36a1.52,1.52,0,0,1,1.64,1.56v.13c-.16,2.39-4.69,3.94-6.77,4.23a5.69,5.69,0,0,0-.08.95c0,1.3.58,1.9,1.46,1.9a4.72,4.72,0,0,0,2.56-1.11,31.53,31.53,0,0,0,3.48-3.33A.21.21,0,0,1,237.36,24.53Zm-7.42,1.25a8.6,8.6,0,0,0,4.5-2.17,3.42,3.42,0,0,0,1.23-2.22.78.78,0,0,0-.23-.59.77.77,0,0,0-.53-.19c-.83,0-2,.95-3,1.94A9.36,9.36,0,0,0,229.94,25.78Z"/><path class="cls-1" d="M237,25.31a.18.18,0,0,1-.11.05.19.19,0,0,1-.19-.17.18.18,0,0,1,.05-.11q1.62-1.71,3.16-3.5a2.94,2.94,0,0,1,1.94-1.22c.7,0,1.21.7,1.21,2.33v.25a5.83,5.83,0,0,1,0,.59l1.16-1.5a3.63,3.63,0,0,1,2.42-1.65h0a1.35,1.35,0,0,1,1,.42.75.75,0,0,1,.27.53.42.42,0,0,1-.43.44.79.79,0,0,1-.53-.27,1.09,1.09,0,0,0-.78-.34,2.5,2.5,0,0,0-1.67,1.07L243,24.14v.28c0,.69-.05,1.3-.05,1.83,0,1.73.22,2.55.86,2.55a2.93,2.93,0,0,0,1.51-.78,33.13,33.13,0,0,0,3.5-3.32.19.19,0,0,1,.13-.06.19.19,0,0,1,.17.19.18.18,0,0,1,0,.11,32.4,32.4,0,0,1-3.53,3.34,4.71,4.71,0,0,1-2.54,1.2c-1.27,0-1.72-1.36-1.85-2.93l-1,1.26c-.53.69-1.43,1.66-2.39,1.66h0a1.42,1.42,0,0,1-1-.42.77.77,0,0,1-.26-.53.42.42,0,0,1,.43-.44.78.78,0,0,1,.53.26,1.07,1.07,0,0,0,.77.35,2.4,2.4,0,0,0,1.67-1.08L241.14,26c0-.23,0-.47,0-.69,0-1.18.13-2.32.15-3v-.17c0-.58-.1-1-.35-1s-.39.18-.72.58C239.16,23,238.11,24.17,237,25.31Z"/><path class="cls-1" d="M262.06,24.53a.17.17,0,0,1,.17.17.15.15,0,0,1,0,.11,31.92,31.92,0,0,1-3.53,3.36,4.61,4.61,0,0,1-2.55,1.19c-1.29,0-1.43-1.05-1.43-2.06,0-.27,0-.53,0-.77-1.2,1.22-2.53,2.83-4.08,2.83s-2.23-1.14-2.23-2.63a6.94,6.94,0,0,1,7.23-6.48,1.48,1.48,0,0,1,1.52,1.67,3.64,3.64,0,0,1-.12.86c.59-1.11,1.23-2.53,2.28-2.53h2.2a8.81,8.81,0,0,0-3.17,3.19c-1.31,2-2.67,4.29-2.67,5.11v0c0,.28.18.42.5.42a4.37,4.37,0,0,0,2.29-1.11,30,30,0,0,0,3.5-3.31A.18.18,0,0,1,262.06,24.53Zm-5.7-1.34a3.75,3.75,0,0,0,.28-1.35c0-.7-.31-1.2-1-1.2a2.78,2.78,0,0,0-1,.2,9.18,9.18,0,0,0-3.81,4.08,7.32,7.32,0,0,0-1,3,1.41,1.41,0,0,0,.19.78.63.63,0,0,0,.59.33c1.17,0,3.25-2.15,3.8-2.81A11.19,11.19,0,0,0,256.36,23.19Z"/><path class="cls-1" d="M266.33,23.44a19.07,19.07,0,0,1,1.36-1.35A5.75,5.75,0,0,1,271,20.28c1.05,0,1.53.88,1.53,1.88a3.48,3.48,0,0,1-.62,2l-2.39,3.29a2,2,0,0,0-.47,1.06c0,.28.17.44.48.44a3.8,3.8,0,0,0,2-1A31,31,0,0,0,275,24.61a.21.21,0,0,1,.13-.05.17.17,0,0,1,.17.16.13.13,0,0,1,0,.12,30.08,30.08,0,0,1-3.53,3.35,4.64,4.64,0,0,1-2.54,1.2c-.88,0-1.43-.8-1.43-1.83a3.7,3.7,0,0,1,.75-2.17l2.25-3.11a2.22,2.22,0,0,0,.52-1.12c0-.27-.17-.39-.45-.39a5.59,5.59,0,0,0-2.89,1.57,23.46,23.46,0,0,0-2.61,2.83l-2,3.25a1.69,1.69,0,0,1-1.72,1h-2.07c1.25-.77,3.78-4.77,5.83-8.11-1.13,1.3-2.27,2.58-3.46,3.83a.18.18,0,0,1-.12.05.18.18,0,0,1-.18-.18.16.16,0,0,1,.05-.1c1.1-1.16,2.16-2.35,3.21-3.54a2.65,2.65,0,0,1,1.81-1.06.72.72,0,0,1,.79.78,1.83,1.83,0,0,1-.28.92Z"/><path class="cls-1" d="M285.59,24.64a.19.19,0,0,1,.19.17.14.14,0,0,1,0,.11,35.15,35.15,0,0,1-3.93,3.89,16.29,16.29,0,0,1-4.13,2.55c-1.7,2.8-5.06,8.67-8.55,8.67H269a1.58,1.58,0,0,1-1.49-1.78,2.54,2.54,0,0,1,.11-.78c.89-3.39,5.14-4.94,8.11-5.94L277.89,28a4,4,0,0,1-2.66,1.48,1.52,1.52,0,0,1-1.7-1.59,3.93,3.93,0,0,1,.67-2L275.94,23c.67-1.11,1.45-2.62,2.5-2.62h2.2a8.53,8.53,0,0,0-3.19,3.18c-1.29,2-2.65,4.3-2.65,5.1v0c0,.28.2.43.53.43a3.67,3.67,0,0,0,2.19-1.23A19.34,19.34,0,0,0,279,26.22L280.91,23c.67-1.11,1.45-2.62,2.5-2.62h2.2a8.55,8.55,0,0,0-3.17,3.18L278,30.86a16.74,16.74,0,0,0,3.61-2.31,35.37,35.37,0,0,0,3.9-3.85A.17.17,0,0,1,285.59,24.64ZM275.48,32c-3.28.9-7.53,4.72-7.53,6.66a.92.92,0,0,0,.21.61.81.81,0,0,0,.7.36c1.28,0,3.44-2.41,5.34-5.52Z"/><path class="cls-1" d="M294.44,24.53a.18.18,0,0,1,.17.17.18.18,0,0,1-.05.11A30.24,30.24,0,0,1,291,28.17a5.1,5.1,0,0,1-3.17,1.19,2.6,2.6,0,0,1-2.8-2,4.49,4.49,0,0,1-.06-.73c0-3.3,3.89-6.36,7-6.36a1.52,1.52,0,0,1,1.64,1.56v.13c-.16,2.39-4.69,3.94-6.77,4.23a5.69,5.69,0,0,0-.08.95c0,1.3.58,1.9,1.46,1.9a4.72,4.72,0,0,0,2.56-1.11,31.53,31.53,0,0,0,3.48-3.33A.19.19,0,0,1,294.44,24.53ZM287,25.78a8.6,8.6,0,0,0,4.5-2.17,3.47,3.47,0,0,0,1.23-2.22.72.72,0,0,0-.77-.78c-.82,0-2,.95-3,1.94A9.36,9.36,0,0,0,287,25.78Z"/><path class="cls-1" d="M305.39,24.67c0,.14-.22.41-.28.49a3.74,3.74,0,0,1-2.61,1.62,1.4,1.4,0,0,1-1.41-1.51,3,3,0,0,1,.61-1.71,62,62,0,0,0-4.26,4.86c-.58.74-.77,1-1.72,1h-2.3c1.24-.77,2.47-2.12,4.64-5,.41-.57,1.57-2.13,1.57-3a.55.55,0,0,0-.18-.45.64.64,0,0,0-.47-.17c-.79,0-1.81,1.11-2.23,1.58-.89,1-1.72,1.92-2.48,2.73a.21.21,0,0,1-.13.05A.18.18,0,0,1,294,25a.12.12,0,0,1,0-.1c.76-.82,1.59-1.72,2.48-2.72s1.72-1.88,3.14-1.88h.08a1.22,1.22,0,0,1,1.31,1.3,3.87,3.87,0,0,1-.47,1.64,19.6,19.6,0,0,1-2,3.08A24,24,0,0,1,301,23.88a4,4,0,0,0,1.28-1.57c.44-1.15,1.13-2,2.13-2,.61,0,.87.2.87.5a1.26,1.26,0,0,1-.34.72,10.63,10.63,0,0,1-1.5,1.22,7.83,7.83,0,0,0-1.31,1.12,2.18,2.18,0,0,0-.6,1.44,1.11,1.11,0,0,0,1.07,1.22c.58,0,1.37-.42,2.28-1.53.09-.11.28-.38.45-.38a.12.12,0,0,1,.08,0S305.39,24.64,305.39,24.67Z"/></g></g></svg>